<svg xmlns="http://www.w3.org/2000/svg" data-name="Layer 1" viewBox="0 0 24 24"><path d="M11.5,6h2a.5.5,0,0,0,0-1h-2a.5.5,0,0,0,0,1Zm8,2a.5.5,0,1,0,.5.5A.5.5,0,0,0,19.5,8ZM22,6.05V5.5A1.5,1.5,0,0,0,20.5,4h-1A1.5,1.5,0,0,0,18,5.5V6H16.86l-.43-1.29A2.5,2.5,0,0,0,14.06,3H10.94A2.5,2.5,0,0,0,8.57,4.71L8.14,6H7V5.5A1.5,1.5,0,0,0,5.5,4h-2A1.5,1.5,0,0,0,2,5.5v.55A2.5,2.5,0,0,0,0,8.5v10a2.5,2.5,0,0,0,2,2.45V21H21.5A2.5,2.5,0,0,0,24,18.5V8.5A2.5,2.5,0,0,0,22,6.05ZM19,5.5a.5.5,0,0,1,.5-.5h1a.5.5,0,0,1,.5.5V6H19ZM3,5.5A.5.5,0,0,1,3.5,5h2a.5.5,0,0,1,.5.5V6H3Zm1.5,13A1.5,1.5,0,0,1,3,20H2.5A1.5,1.5,0,0,1,1,18.5v-8H3.07A2,2,0,0,0,4.5,11.93ZM4,10a1,1,0,1,1,1,1A1,1,0,0,1,4,10Zm19,8.5A1.5,1.5,0,0,1,21.5,20H5a2.48,2.48,0,0,0,.51-1.5V11.93A2,2,0,1,0,3.07,9.5H1v-1A1.5,1.5,0,0,1,2.5,7h6l.11,0,.08,0,.08-.05.08-.06,0-.07A.48.48,0,0,0,9,6.67v0L9.52,5a1.5,1.5,0,0,1,1.42-1h3.12a1.5,1.5,0,0,1,1.42,1L16,6.66h0a.49.49,0,0,0,.16.22l0,0A.49.49,0,0,0,16.5,7h5A1.5,1.5,0,0,1,23,8.5ZM14.5,8A5.5,5.5,0,1,0,20,13.5,5.51,5.51,0,0,0,14.5,8Zm0,10A4.5,4.5,0,1,1,19,13.5,4.5,4.5,0,0,1,14.5,18Zm0-8A3.5,3.5,0,1,0,18,13.5,3.5,3.5,0,0,0,14.5,10Zm0,6A2.5,2.5,0,1,1,17,13.5,2.5,2.5,0,0,1,14.5,16Z"/></svg>