<svg xmlns="http://www.w3.org/2000/svg" enable-background="new 0 0 511.941 511.941" viewBox="0 0 511.941 511.941"><path d="M263.996,269.341c-22.42-15.922-51.07,2.407-43.904,33.616c4.476,19.474,22.725,33.15,40.406,42.472
		c2.189,1.154,4.807,1.154,6.996,0c17.724-9.343,35.948-23.039,40.406-42.474C315.061,271.758,286.387,253.442,263.996,269.341z
		 M293.281,299.6c-3.137,13.652-17.17,23.6-29.285,30.62c-12.114-7.02-26.145-16.966-29.285-30.621
		c-0.604-2.632-1.517-6.609-0.136-11.141c0.502-1.648,1.548-5.077,4.697-7.481c2.283-1.743,5.65-2.833,8.889-2.309
		c6.133,0.992,9.401,4.797,9.804,5.293c2.979,4.311,9.076,4.32,12.063,0c0.402-0.496,3.671-4.302,9.804-5.293
		c4.606-0.747,8.214,1.792,8.889,2.309c3.146,2.403,4.194,5.833,4.697,7.481C294.797,292.988,293.884,296.967,293.281,299.6z"/><path d="M345.41 361.466l59.025-136.409c19.996-4.04 32.709-23.405 32.708-44.378 0-3.204-2.076-6.17-5.27-7.165-1.414-.44-1.637-.337-9.788-.337v-53.576c0-4.142-3.357-7.5-7.5-7.5-9.469 0-18.3 1.027-26.367 3.04-8.406-21.543-25.866-53.229-48.963-53.229v-9.241c0-4.142-3.357-7.5-7.5-7.5-8.335 0-16.132.871-23.272 2.592C298.931 23.579 282.98 0 263.996 0c-19.225 0-35.34 24.182-44.847 48.684-7.044-1.665-14.715-2.513-22.912-2.513-4.142 0-7.5 3.358-7.5 7.5v8.259c-23.359-.426-40.898 31.394-49.338 53.111-7.964-1.95-16.671-2.94-25.992-2.94-4.142 0-7.5 3.358-7.5 7.5v53.576c-7.43 0-8.57-.21-10.459.583-2.619 1.1-4.562 3.676-4.597 6.9-.222 20.439 11.905 40.008 32.649 44.283l27.625 63.835c1.646 3.802 6.062 5.55 9.862 3.905 3.802-1.646 5.55-6.061 3.905-9.862l-25.04-57.86c10.439-2.246 19.036-8.78 24.727-17.615 15.491 24.128 50.013 25.225 66.26 0 15.577 24.262 50.304 25.175 66.434-.278 15.858 24.457 50.319 25.511 66.195.445 5.757 8.877 14.093 15.071 24.707 17.353L329.09 361.412H308.97c-4.143 0-7.5 3.358-7.5 7.5s3.357 7.5 7.5 7.5c28.869 0-36.88 0 35.378 0 1.379 0 2.5 1.122 2.5 2.5v25.176c0 1.378-1.121 2.5-2.5 2.5-34.751 0-129.403 0-160.706 0-1.378 0-2.5-1.122-2.5-2.5v-25.176c0-1.378 1.122-2.5 2.5-2.5 173.366 0 28.089 0 89.773 0 4.143 0 7.5-3.358 7.5-7.5s-3.357-7.5-7.5-7.5h-74.52l-20.052-46.204c-1.649-3.799-6.065-5.545-9.866-3.894-3.8 1.649-5.543 6.066-3.894 9.866l17.484 40.287c-9.148.56-16.425 8.159-16.425 17.446v25.176c0 9.649 7.851 17.5 17.5 17.5h7.308l-23.547 67.054c-3.992 11.368 4.462 23.298 16.511 23.298h24.792c4.142 0 7.5-3.358 7.5-7.5s-3.358-7.5-7.5-7.5c-26.93 0-25.794.409-26.831-1.055-1.068-1.508-2.765 4.692 24.973-74.298h10.374l-11.768 35.305c-1.617 4.851 1.998 9.872 7.115 9.872h26.118c3.228 0 6.094-2.066 7.115-5.128l13.349-40.048h9.33l13.427 40.277c1.021 3.063 3.887 5.128 7.115 5.128h26.117c5.111 0 8.734-5.016 7.115-9.872l-11.845-35.534h10.733l25.292 72.024c.571 1.628-.63 3.328-2.358 3.328h-99.475c-4.142 0-7.5 3.358-7.5 7.5s3.358 7.5 7.5 7.5h99.475c12.048 0 20.504-11.929 16.511-23.298l-23.547-67.054h7.307c9.649 0 17.5-7.851 17.5-17.5v-25.176C361.848 369.621 354.564 362.019 345.41 361.466zM407.085 173.177c-47.446 0 60.523 0-58.306 0 6.683-26.57 25.945-43.613 58.306-45.826V173.177zM271.496 173.177v-45.826c32.317 2.21 51.604 19.214 58.297 45.826C291.47 173.177 359.012 173.177 271.496 173.177zM198.199 173.177c6.682-26.57 25.935-43.613 58.297-45.826v45.826H198.199zM374.043 120.048c-18.517 8.444-28.919 22.188-34.757 34.96-5.837-12.77-16.235-26.511-34.742-34.956 5.376-13.738 20.012-43.141 34.742-43.141C348.508 76.911 362.952 91.702 374.043 120.048zM324.255 66.51c-15.737 9.614-27.2 31.367-33.897 48.629-5.888-1.469-12.192-2.399-18.848-2.799.179-4.928 2.584-37.279 34.803-48.347 5.383-1.851 11.394-3.036 17.941-3.541V66.51zM263.996 15c7.981 0 20.523 12.93 30.328 37.715-15.312 7.256-24.889 18.951-30.572 30.688-5.781-11.485-15.344-22.811-30.415-29.851C243.189 28.219 255.924 15 263.996 15zM203.736 61.453c6.547.505 12.56 1.69 17.943 3.542 30.559 10.498 34.294 40.135 34.751 47.349-6.78.41-13.19 1.377-19.173 2.897-7.769-19.944-19.469-39.632-33.521-48.475V61.453zM183.676 77.948c16.052-6.787 33.03 25.851 39.433 42.266-18.292 8.457-28.604 22.103-34.404 34.793-5.874-12.85-16.367-26.686-35.098-35.116C158.929 106.336 170.322 83.632 183.676 77.948zM120.906 127.351c29.167 1.994 51.024 16.872 58.306 45.826h-58.306V127.351zM106.539 188.177c97.418 0 16.005 0 49.865 0C150.342 218.472 112.544 218.45 106.539 188.177zM172.8 188.177c77.467 0 1.026 0 49.865 0C216.602 218.473 178.804 218.451 172.8 188.177zM239.059 188.177c1.877 0 43.62 0 49.864 0C282.863 218.468 245.065 218.452 239.059 188.177zM305.396 188.177c15.847 0 41.242 0 49.813 0C349.35 219.018 311.8 217.94 305.396 188.177zM371.579 188.177c33.742 0-47.412 0 49.764 0C414.798 218.968 377.485 217.961 371.579 188.177zM233.281 451.765h-10.306l10.059-30.176h10.306L233.281 451.765zM304.735 451.994h-10.307l-10.135-30.406h10.307L304.735 451.994zM116.23 42.075L89.642 31.264 78.831 4.675c-2.527-6.215-11.364-6.225-13.896 0L54.124 31.264 27.536 42.075c-6.215 2.527-6.225 11.364 0 13.896l26.589 10.811L64.935 93.37c2.527 6.215 11.364 6.225 13.896 0l10.811-26.589L116.23 55.97C122.445 53.443 122.455 44.606 116.23 42.075zM71.883 70.633c-5.117-12.586-5.305-14.981-9.178-16.556l-12.433-5.055 12.433-5.055c3.871-1.574 4.059-3.966 9.178-16.556 5.118 12.587 5.306 14.981 9.178 16.556l12.433 5.055C75.308 56.417 79.261 52.487 71.883 70.633z"/><path d="M484.406,286.626l-19.78-8.042l-8.043-19.78c-2.528-6.215-11.366-6.223-13.895,0l-8.042,19.779l-19.78,8.042
		c-6.215,2.528-6.224,11.364,0,13.896l19.78,8.042l8.042,19.78c2.525,6.215,11.366,6.224,13.895,0l8.043-19.78l19.78-8.042
		C490.62,297.994,490.629,289.158,484.406,286.626z M449.635,305.606c-3.871-9.521-2.639-8.214-12.031-12.032
		c9.399-3.821,8.165-2.523,12.031-12.032c3.872,9.521,2.64,8.213,12.032,12.032C452.267,297.396,453.503,296.098,449.635,305.606z"/></svg>