<svg xmlns="http://www.w3.org/2000/svg" viewBox="0 0 64 64"><path d="M24 10c1.654 0 3-1.346 3-3a1 1 0 1 0-2 0 1.001 1.001 0 0 1-2 0c0-.552.449-1 1-1a1 1 0 1 0 0-2c-1.654 0-3 1.346-3 3s1.346 3 3 3zm18-3c1.654 0 3-1.346 3-3a1 1 0 1 0-2 0 1.001 1.001 0 0 1-2 0c0-.552.449-1 1-1a1 1 0 1 0 0-2c-1.654 0-3 1.346-3 3s1.346 3 3 3zM4 6h.75C5.991 6 7 7.01 7 8.25V9a1 1 0 1 0 2 0v-.75C9 7.01 10.009 6 11.25 6H12a1 1 0 1 0 0-2h-.75A2.253 2.253 0 0 1 9 1.75V1a1 1 0 1 0-2 0v.75C7 2.99 5.991 4 4.75 4H4a1 1 0 1 0 0 2zm4-1.544c.165.198.346.379.544.544A4.236 4.236 0 0 0 8 5.544 4.236 4.236 0 0 0 7.456 5c.198-.165.379-.346.544-.544zM57 5h.563A1.44 1.44 0 0 1 59 6.438V7a1 1 0 1 0 2 0v-.562A1.44 1.44 0 0 1 62.438 5H63a1 1 0 1 0 0-2h-.563A1.44 1.44 0 0 1 61 1.563V1a1 1 0 1 0-2 0v.563A1.44 1.44 0 0 1 57.563 3H57a1 1 0 1 0 0 2zm3-1.018.018.018-.018.018L59.982 4 60 3.982zM40.294 23.043a3 3 0 0 0-3.541-2.336l-1.959.401-.402-1.96a3 3 0 0 0-5.346-1.185 2.977 2.977 0 0 0-2.113-.349 3.004 3.004 0 0 0-2.337 3.542l.401 1.958-1.959.402a3.003 3.003 0 0 0-2.337 3.541c.154.752.579 1.38 1.152 1.805a2.989 2.989 0 0 0-.349 2.114 3.004 3.004 0 0 0 3.541 2.335l2.127-.436a2.973 2.973 0 0 0 1.901-1.287l1.33-2.015.921 4.494a2.002 2.002 0 0 1-1.558 2.36 1 1 0 1 0 .403 1.959 4.005 4.005 0 0 0 3.115-4.722l-.92-4.492 2.016 1.33a2.982 2.982 0 0 0 2.254.434l2.127-.437c.785-.161 1.46-.617 1.902-1.286s.596-1.47.435-2.255a2.979 2.979 0 0 0-1.151-1.807 2.97 2.97 0 0 0 .347-2.108zm-12.96-3.469a1.002 1.002 0 0 1 1.18.779l.201.979a1 1 0 0 0 1.958-.403l-.201-.979c-.11-.54.239-1.069.779-1.18.54-.107 1.07.239 1.181.779l.436 2.128a1 1 0 0 1-.145.751l-2.109 3.194-3.196-2.108a.991.991 0 0 1-.429-.634l-.436-2.126a1.006 1.006 0 0 1 .781-1.18zm.071 10.916a.994.994 0 0 1-.633.429l-2.127.436a.991.991 0 0 1-.751-.146c-.223-.146-.375-.372-.429-.634s-.002-.528.145-.752a.997.997 0 0 1 .633-.429l.98-.2a1 1 0 1 0-.4-1.959l-.98.2a1.004 1.004 0 0 1-1.181-.779 1.003 1.003 0 0 1 .78-1.18l2.127-.437a.993.993 0 0 1 .751.146l3.195 2.108-2.11 3.197zm11.588-2.375a.994.994 0 0 1-.634.429l-2.127.437a.997.997 0 0 1-.751-.146l-3.196-2.109 2.109-3.195a.994.994 0 0 1 .633-.429l2.127-.436a.986.986 0 0 1 .751.146.991.991 0 0 1 .429.634c.11.54-.239 1.069-.778 1.181l-.98.2a1 1 0 1 0 .4 1.959l.981-.2a.994.994 0 0 1 .75.145.993.993 0 0 1 .429.635.977.977 0 0 1-.143.749zM2.937 27a1 1 0 0 0 .983-1.192l-1.667-8.566L22.19 13.39a1 1 0 1 0-.379-1.963L.891 15.468a.996.996 0 0 0-.792 1.173l1.858 9.55a.999.999 0 0 0 .98.809z"/><path d="m63.612 31.209-4.307-3.336-4.223-21.852a.998.998 0 0 0-1.172-.792L34.818 8.916l-2.206-1.707a.998.998 0 0 0-1.223 0l-4.087 3.158-1.491.288a1 1 0 1 0 .379 1.963l27.118-5.236 4.995 25.847-22.321 11.157-3.439-2.225a1.004 1.004 0 0 0-1.087 0L2.04 61.197C2.026 61.131 2 61.07 2 61V33.618l21.553 10.773a1 1 0 0 0 .895-1.79L2.872 31.817l1.42-1.097a.999.999 0 1 0-1.223-1.582l-2.68 2.07A.995.995 0 0 0 .008 32H0v29c0 1.654 1.346 3 3 3h58c1.654 0 3-1.346 3-3V32h-.008c0-.307-.134-.6-.38-.791zM32 9.264l.203.157-.542.105.339-.262zm27.88 21.585 1.25.968-.969.484-.281-1.452zM32 44.191 59.518 62H4.482L32 44.191zM62 61c0 .07-.026.131-.04.197l-24.028-15.55L62 33.618V61z"/></svg>