<svg xmlns="http://www.w3.org/2000/svg" width="100" height="100"><g stroke="#373449" transform="translate(21.316 -448.657)"><path fill="none" stroke-linecap="round" stroke-linejoin="round" d="M-.021 501.614c.984 2.552.2 4.239-2.52 4.18-2.72-.06-4.888-2.8-1.688-6.751 3.2-3.95 8.314-2.165 8.415 1.636.102 3.801-.467 29.454-.467 29.454-.312 2.078-5.258.843-2.64-1.945"/><path fill="none" d="M4.186 516.107H62.86"/><path fill="none" stroke-linecap="round" stroke-linejoin="round" d="M67.24 501.614c-.985 2.552-.201 4.239 2.519 4.18 2.72-.06 4.888-2.8 1.688-6.751-3.2-3.95-8.314-2.165-8.415 1.636-.102 3.801.467 29.454.467 29.454.312 2.078 5.258.843 2.64-1.945"/><path fill="none" d="M4.537 503.484c20.183-4.625 39.91-5.488 58.557 0m-58.557 3.554c20.266-3.89 40.047-4.266 58.557 0m-58.557 3.389c20.183-3.32 39.91-3.316 58.557 0M4.537 513.65c20.095-2.249 39.78-1.963 58.557 0M4.186 518.16H62.86"/><circle cx="50.244" cy="485.91" r="8.355" fill="none" stroke-linecap="round" stroke-linejoin="round"/><path fill="none" stroke-linecap="round" d="m50.038 494.61-.72 17.642"/><path fill="none" stroke-linecap="round" stroke-linejoin="round" d="m49.86 494.788-12.768 12.768m13.132-12.768 12.768 12.768m-14.027 5.147-4.815 4.72.261 9.298"/><circle cx="22.308" cy="486.667" r="8.355" fill="none" stroke-linecap="round" stroke-linejoin="round"/><path fill="none" stroke-linecap="round" stroke-linejoin="round" d="M20.049 495.1 7.28 507.866m17.328-13.036L37.377 507.6m-19.739 5.284-.536 14.018m8.84-7.232.089 7.41"/><path fill="#2bbda8" d="M20.67 494.862c.583 20.654-10.575 14.968-10.48 23.613 7.997 1.5 15.994 2.767 23.99.631-1.286-8.276-10.998-6.468-10.1-24.244-1.176.343-2.23.169-3.41 0z"/><path fill="none" stroke-linecap="round" stroke-miterlimit="4.067" stroke-width="2" d="m21.346 487.187.022.01m5.648-.01.021.01"/><path fill="none" stroke-linecap="round" d="M9.982 492.617c3.495 2.685 3.764-2.321 3.977-6.26m20.682 6.26c-3.495 2.685-3.764-2.321-3.977-6.26m19.82-9.024c-.076-1.443.89-2.329 1.83-2.545m-1.99 2.545c.032-.84-.354-1.659-1.295-1.875"/><path fill="none" stroke-linecap="round" stroke-miterlimit="4.067" stroke-width="2" d="m45.52 486.9.021.01m5.648-.01.022.01"/><path fill="none" stroke-linecap="round" d="M23.143 492.13c.46.339 1.01.686 1.926 0m22.502-.768c.46.338 2.528.64 3.444-.045"/><path fill="none" stroke-linecap="round" stroke-linejoin="round" d="m49.596 512.703 4.815 4.72-.26 9.298"/><path fill="#ff5a67" stroke-linecap="round" stroke-linejoin="round" d="M31.368 477.337c2.768-2.312 5.743-5.21 5.177-8.839-.566-3.628-3.881-2.63-5.934 0-1.896-2.754-4.65-1.273-5.556 0-.906 1.274 6.536 7.676 6.536 7.676m5.355 7.063c1.307-1.092 2.712-2.46 2.445-4.173-.268-1.713-1.833-1.242-2.802 0-.895-1.3-2.196-.602-2.624 0-.427.601 2.817 3.846 2.817 3.846"/><path fill="#ff5a67" stroke-linecap="round" stroke-linejoin="round" stroke-width=".903" d="M-6.947 516.406h-8.774v7.64h8.781v-7.612"/><path fill="#2bbda8" stroke-linecap="round" stroke-linejoin="round" stroke-width=".903" d="M-11.39 516.401c-1.11-.296-2.847-.909-2.298-1.875.549-.966 2.032-.08 2.379 1.794.593-1.389 1.824-2.795 2.419-1.713.595 1.082-1.326 2.003-2.359 1.794"/><path fill="none" stroke-linecap="round" stroke-linejoin="round" stroke-width=".903" d="M-11.216 516.69v7.242"/></g></svg>